<svg viewBox="0 0 64 64" xmlns="http://www.w3.org/2000/svg"><g id="flat"><rect fill="#e6afe6" height="44" rx="2" width="34" x="27" y="3"/><rect fill="#645191" height="38" rx="2" width="28" x="30" y="6"/><path d="m38.244 8.282a2 2 0 0 0 -2.444-1.415l-5.8 1.553v33.58a2 2 0 0 0 2 2h15.815z" fill="#4e407a"/><path d="m49.689 31a6.165 6.165 0 0 1 -6.318-6 6.165 6.165 0 0 1 6.318-6c.1 0 .207.01.311.015a8.638 8.638 0 0 0 -5.576-2.015 8.22 8.22 0 0 0 -8.424 8 8.22 8.22 0 0 0 8.424 8 8.638 8.638 0 0 0 5.576-2.015c-.1.005-.206.015-.311.015z" fill="#fdca79"/><path d="m40.792 17.79a7.974 7.974 0 0 0 -4.792 7.21 8.22 8.22 0 0 0 8.424 8c.148 0 .292-.012.438-.02z" fill="#fcba59"/><rect fill="#e6afe6" height="44" rx="2" transform="matrix(.966 -.259 .259 .966 -8.207 7.663)" width="34" x="8" y="13"/><rect fill="#645191" height="38" rx="2" transform="matrix(.966 -.259 .259 .966 -8.207 7.663)" width="28" x="11" y="16"/><path d="m42.575 46.5-14.521 3.888a10 10 0 0 1 -12.248-7.071l-6.381-23.817-.934.25a2 2 0 0 0 -1.414 2.45l8.8 32.841a2 2 0 0 0 2.449 1.414l23.183-6.211a2 2 0 0 0 1.414-2.45z" fill="#4e407a"/><path d="m36.646 35.964s-3.242 7.024-9.139 8.6-12.216-2.882-12.216-2.882 3.241-7.024 9.139-8.6 12.216 2.882 12.216 2.882z" fill="#e6afe6"/><circle cx="26.035" cy="38.864" fill="#f4f4f4" r="6"/><circle cx="25.776" cy="37.898" fill="#645191" r="3"/><path d="m36.635 35.961a24.076 24.076 0 0 0 -11.424.018 24.081 24.081 0 0 0 -9.913 5.7c.166-.345 3.389-7.058 9.136-8.6s11.885 2.667 12.201 2.882z" fill="#e69ae8"/><path d="m52 24h-1v-1a1 1 0 0 0 -2 0v1h-1a1 1 0 0 0 0 2h1v1a1 1 0 0 0 2 0v-1h1a1 1 0 0 0 0-2z" fill="#fdca79"/><g fill="#e6afe6"><path d="m21.481 29.463a1 1 0 0 0 .965.741 1.015 1.015 0 0 0 .26-.034 1 1 0 0 0 .707-1.225l-1.035-3.863a1 1 0 0 0 -1.932.518z"/><path d="m15.789 36.4a1 1 0 0 0 .66-1.751l-2.708-2.379a1 1 0 1 0 -1.32 1.5l2.708 2.379a1 1 0 0 0 .66.251z"/><path d="m18.128 32.128a1 1 0 1 0 1.5-1.326l-1.483-1.674a1 1 0 1 0 -1.5 1.326z"/><path d="m31.855 31.687a1 1 0 0 0 1.268-.627l1.155-3.416a1 1 0 1 0 -1.894-.644l-1.155 3.416a1 1 0 0 0 .626 1.271z"/><path d="m27.335 29.855a.988.988 0 0 0 .2.021 1 1 0 0 0 .979-.8l.448-2.19a1 1 0 0 0 -1.959-.4l-.448 2.191a1 1 0 0 0 .78 1.178z"/></g></g></svg>